HIERARCHY
ROOT Hips
{
	OFFSET 62.890800 8.863803 43.568401
	CHANNELS 6 Xposition Yposition Zposition Zrotation Xrotation Yrotation
	JOINT Chest
	{
		OFFSET -0.160400 1.630001 7.806301
		CHANNELS 6 Xposition Yposition Zposition Zrotation Xrotation Yrotation
		JOINT Chest2
		{
			OFFSET 0.000000 0.000000 3.197998
			CHANNELS 6 Xposition Yposition Zposition Zrotation Xrotation Yrotation
			JOINT Neck
			{
				OFFSET 0.000000 0.000001 7.440701
				CHANNELS 6 Xposition Yposition Zposition Zrotation Xrotation Yrotation
				JOINT Head
				{
					OFFSET 0.000000 0.000000 2.173901
					CHANNELS 6 Xposition Yposition Zposition Zrotation Xrotation Yrotation
					End Site
					{
						OFFSET 0.000000 0.000001 10.420303
					}
				}
			}
			JOINT LeftCollar
			{
				OFFSET 2.426399 -1.880099 4.759399
				CHANNELS 6 Xposition Yposition Zposition Zrotation Xrotation Yrotation
				JOINT LeftShoulder
				{
					OFFSET 4.420197 0.000000 0.000000
					CHANNELS 6 Xposition Yposition Zposition Zrotation Xrotation Yrotation
					JOINT LeftElbow
					{
						OFFSET 0.000000 -0.000001 -10.347099
						CHANNELS 6 Xposition Yposition Zposition Zrotation Xrotation Yrotation
						JOINT LeftWrist
						{
							OFFSET 0.000000 -0.000001 -12.496300
							CHANNELS 6 Xposition Yposition Zposition Zrotation Xrotation Yrotation
							End Site
							{
								OFFSET 0.000000 0.000000 -2.173901
							}
						}
					}
				}
			}
			JOINT RightCollar
			{
				OFFSET -2.781502 -1.903799 5.072601
				CHANNELS 6 Xposition Yposition Zposition Zrotation Xrotation Yrotation
				JOINT RightShoulder
				{
					OFFSET -4.012100 0.000000 0.000000
					CHANNELS 6 Xposition Yposition Zposition Zrotation Xrotation Yrotation
					JOINT RightElbow
					{
						OFFSET 0.000000 -0.000001 -10.346600
						CHANNELS 6 Xposition Yposition Zposition Zrotation Xrotation Yrotation
						JOINT RightWrist
						{
							OFFSET 0.000000 -0.000001 -12.562599
							CHANNELS 6 Xposition Yposition Zposition Zrotation Xrotation Yrotation
							End Site
							{
								OFFSET 0.000000 0.000000 -2.173901
							}
						}
					}
				}
			}
		}
	}
	JOINT LeftHip
	{
		OFFSET 2.047997 -0.047200 -2.693199
		CHANNELS 6 Xposition Yposition Zposition Zrotation Xrotation Yrotation
		JOINT LeftKnee
		{
			OFFSET 0.000000 -0.000001 -18.824400
			CHANNELS 6 Xposition Yposition Zposition Zrotation Xrotation Yrotation
			JOINT LeftAnkle
			{
				OFFSET 0.000000 -0.000002 -19.078199
				CHANNELS 6 Xposition Yposition Zposition Zrotation Xrotation Yrotation
				End Site
				{
					OFFSET 0.000000 -9.342100 0.000001
				}
			}
		}
	}
	JOINT RightHip
	{
		OFFSET -2.129898 -0.022300 -2.538300
		CHANNELS 6 Xposition Yposition Zposition Zrotation Xrotation Yrotation
		JOINT RightKnee
		{
			OFFSET 0.000000 -0.000001 -18.644600
			CHANNELS 6 Xposition Yposition Zposition Zrotation Xrotation Yrotation
			JOINT RightAnkle
			{
				OFFSET 0.000000 -0.000002 -18.801399
				CHANNELS 6 Xposition Yposition Zposition Zrotation Xrotation Yrotation
				End Site
				{
					OFFSET 0.000000 -8.914600 0.000001
				}
			}
		}
	}
}
MOTION
Frames: 6
Frame Time: 0.041667
38.390594 29.447010 46.025177 -87.969018 12.798306 0.369659 -0.160401 1.629999 7.806301 -10.619383 7.014180 2.962002 0.000015 0.000004 3.197995 3.523675 -2.332306 0.149785 -0.000006 0.000002 7.440708 6.152502 32.018947 -1.461338 -0.000004 0.000004 2.173907 1.797506 4.861081 1.126014 2.426403 -1.880097 4.759403 -169.537098 183.556471 -206.866185 4.420197 -0.000002 -0.000005 -59.294108 -14.383755 -142.966514 -0.000005 0.000000 -10.347102 585.489389 -169.711759 -177.203425 0.000001 -0.000001 -12.496304 -308.815255 -5.029376 383.810487 -2.781506 -1.903797 5.072603 -188.444277 -187.368140 206.082203 -4.012105 0.000000 -0.000001 77.402074 -22.428938 522.917862 -0.000000 0.000003 -10.346596 -407.281448 -8.584253 -7.676996 0.000002 -0.000002 -12.562603 1589.877996 -159.267321 161.660059 2.047997 -0.047199 -2.693194 369.365483 -13.645440 -13.210600 -0.000001 0.000008 -18.824398 204.082378 169.900860 -177.654081 -0.000001 -0.000000 -19.078197 -394.833538 19.704362 10.761328 -2.129894 -0.022300 -2.538302 -376.606058 -15.066323 10.961028 0.000009 -0.000007 -18.644600 145.673469 167.857909 179.051469 0.000002 -0.000003 -18.801401 38.772826 28.868942 3.605684
38.348801 29.456810 46.041176 -88.037081 13.100983 0.374907 -0.160405 1.629992 7.806306 -10.495058 6.857732 2.887784 0.000018 0.000004 3.197998 3.519722 -2.279383 0.148573 -0.000003 -0.000004 7.440708 6.178186 32.374465 -1.640420 -0.000004 0.000008 2.173908 1.764326 4.749197 0.985169 2.426400 -1.880100 4.759410 -169.210806 183.825976 -207.269781 4.420193 0.000000 0.000000 -59.448163 -14.850040 -142.837082 0.000008 -0.000004 -10.347092 585.078321 -169.823802 -177.238928 -0.000007 0.000003 -12.496293 -308.873858 -4.930373 383.809039 -2.781509 -1.903803 5.072607 -188.675602 -187.188765 206.237822 -4.012097 -0.000001 0.000002 77.401049 -22.365369 522.954909 -0.000000 0.000008 -10.346598 -407.435373 -8.319518 -7.529019 0.000010 -0.000003 -12.562596 1589.910343 -159.389486 161.750805 2.047987 -0.047203 -2.693190 369.674044 -13.869072 -13.107065 -0.000001 0.000002 -18.824398 204.577881 170.115874 -177.618987 0.000000 0.000006 -19.078199 -395.515327 19.873714 10.890434 -2.129900 -0.022303 -2.538299 -376.900084 -15.388095 10.819210 -0.000003 -0.000006 -18.644600 145.583037 167.860764 179.035623 -0.000005 -0.000001 -18.801399 39.181100 28.971589 3.632517
38.311794 29.465607 46.052483 -88.005813 13.372832 0.377126 -0.160401 1.629997 7.806307 -10.422985 6.774810 2.798993 0.000007 0.000003 3.198002 3.508200 -2.253779 0.147847 -0.000006 0.000012 7.440699 6.094695 32.677927 -1.725998 -0.000005 0.000002 2.173913 1.814764 4.649629 0.867244 2.426399 -1.880093 4.759397 -168.904691 184.075388 -207.550611 4.420196 -0.000001 0.000000 -59.724178 -15.238017 -142.798437 0.000000 -0.000001 -10.347093 584.624305 -169.955092 -177.285442 -0.000007 0.000006 -12.496299 -308.951805 -4.853964 383.809039 -2.781502 -1.903793 5.072606 -188.915547 -186.976470 206.319866 -4.012103 0.000002 0.000007 77.444073 -22.299196 522.940101 0.000001 0.000007 -10.346597 -407.449853 -8.147506 -7.400851 -0.000004 -0.000001 -12.562595 1589.385566 -159.530311 161.692776 2.047993 -0.047205 -2.693190 369.905314 -14.051691 -13.011733 0.000005 0.000002 -18.824400 205.104843 170.380134 -177.562147 0.000002 -0.000004 -19.078201 -396.227689 20.081265 11.019648 -2.129902 -0.022304 -2.538296 -377.165778 -15.646614 10.686074 -0.000007 -0.000003 -18.644604 145.487742 167.878741 179.022291 0.000001 0.000008 -18.801399 40.105638 28.078551 0.351125
38.278702 29.470921 46.057480 -87.885704 13.635452 0.324931 -0.160397 1.630003 7.806300 -10.429730 6.732646 2.756911 0.000018 0.000001 3.198003 3.509104 -2.229114 0.148074 -0.000001 0.000003 7.440701 6.020510 32.901868 -1.801488 -0.000005 0.000003 2.173907 1.832996 4.552748 0.772850 2.426408 -1.880101 4.759404 -168.480099 184.706183 -207.862232 4.420197 -0.000004 -0.000005 -60.165805 -15.436045 -142.508359 -0.000001 0.000003 -10.347096 584.281156 -170.103471 -177.346477 0.000000 0.000002 -12.496310 -308.988988 -4.800065 383.835649 -2.781499 -1.903803 5.072605 -189.370287 -186.306168 206.447891 -4.012110 -0.000002 -0.000002 77.549783 -22.178160 522.506084 0.000001 0.000006 -10.346594 -407.574381 -8.042666 -7.267216 0.000006 -0.000003 -12.562596 1589.069083 -159.606290 161.685249 2.047995 -0.047198 -2.693196 370.060851 -14.201585 -12.865799 0.000000 0.000003 -18.824404 205.474930 170.674693 -177.491850 0.000001 0.000002 -19.078199 -396.755471 20.279033 11.067143 -2.129899 -0.022298 -2.538295 -377.515047 -15.938535 10.590439 0.000000 -0.000007 -18.644594 145.255611 167.871843 179.051333 -0.000000 -0.000003 -18.801399 40.589656 28.139481 0.075416
38.248299 29.471111 46.054981 -87.700189 13.872838 0.229240 -0.160404 1.630003 7.806308 -10.486446 6.751013 2.711095 0.000013 0.000002 3.198003 3.523633 -2.227046 0.149114 -0.000008 0.000006 7.440692 5.862505 33.072360 -1.726693 -0.000009 0.000013 2.173903 1.854045 4.509291 0.618333 2.426401 -1.880098 4.759394 -168.002026 185.418339 -207.976351 4.420198 -0.000002 0.000002 -60.745708 -15.453609 -142.228786 0.000002 -0.000001 -10.347099 584.071333 -170.239050 -177.400244 0.000006 0.000004 -12.496307 -309.020079 -4.780238 383.859309 -2.781504 -1.903797 5.072602 -189.863754 -185.591171 206.484501 -4.012108 0.000001 0.000005 77.715805 -21.923483 522.054089 -0.000003 -0.000003 -10.346598 -407.760654 -7.952017 -7.126280 0.000013 -0.000001 -12.562599 1588.804399 -159.603667 161.631154 2.047997 -0.047196 -2.693198 370.090276 -14.304860 -12.698621 0.000001 0.000000 -18.824398 205.833461 170.956876 -177.424300 0.000002 -0.000001 -19.078194 -397.178970 20.458392 10.992305 -2.129895 -0.022296 -2.538300 -377.871036 -16.202257 10.545339 0.000005 -0.000002 -18.644600 145.010940 167.881911 179.077055 -0.000006 0.000002 -18.801401 41.051237 28.209945 -0.226956
38.220795 29.466106 46.045483 -87.510692 14.085360 0.115012 -0.160408 1.629998 7.806298 -10.458357 6.813875 2.650811 0.000008 0.000000 3.198006 3.497260 -2.212603 0.149405 -0.000006 0.000001 7.440698 5.662578 33.159909 -1.579308 -0.000006 0.000001 2.173903 1.841375 4.483229 0.528017 2.426399 -1.880100 4.759399 -167.541002 186.245598 -208.084623 4.420204 -0.000011 -0.000005 -61.235583 -15.352063 -141.804371 -0.000000 -0.000001 -10.347094 584.108270 -170.328512 -177.437810 -0.000006 -0.000000 -12.496292 -309.002157 -4.764158 383.842752 -2.781501 -1.903803 5.072600 -190.482023 -184.549293 206.615558 -4.012090 0.000005 0.000006 77.895405 -21.645471 521.322767 0.000005 0.000003 -10.346600 -408.078777 -7.850527 -7.000068 0.000015 0.000001 -12.562595 1588.598073 -159.603762 161.553358 2.047997 -0.047201 -2.693196 370.038722 -14.369982 -12.514672 0.000000 -0.000002 -18.824400 206.164370 171.213650 -177.378264 0.000009 0.000001 -19.078199 -397.480837 20.603131 10.806397 -2.129905 -0.022300 -2.538297 -378.367400 -16.499676 10.505884 -0.000008 -0.000001 -18.644600 144.968730 167.842309 179.110919 -0.000009 0.000004 -18.801399 41.437535 28.260427 -0.438477
